<svg xmlns="http://www.w3.org/2000/svg" viewBox="25 20 125 145" role="img" aria-labelledby="title desc">
  <title id="title">توقيع عمرو ومنى الذهبي</title><desc id="desc">مونوجرام عربي مرفوع بالذهبي لعمرو ومنى</desc>
  <defs><linearGradient id="gold" x1=".12" y1=".08" x2=".86" y2=".92"><stop offset="0" stop-color="#fff1bd"/><stop offset=".45" stop-color="#d8ad4f"/><stop offset="1" stop-color="#8c6728"/></linearGradient><filter id="soft" x="-25%" y="-20%" width="150%" height="145%"><feDropShadow dx="0" dy="3" stdDeviation="2.5" flood-color="#000" flood-opacity=".5"/></filter><style>@import url('https://fonts.googleapis.com/css2?family=Aref+Ruqaa:wght@700&amp;display=swap');</style></defs>
  <g filter="url(#soft)" fill="none" stroke="url(#gold)" stroke-linecap="round" stroke-linejoin="round"><path d="M53 31c-10 8-14 19-12 29 2 10 10 14 18 9 7-5 10-14 7-23" stroke-width="2.1"/><path d="M45 33c-1 9-8 15-16 17M50 47c-6 6-7 14-4 22M62 41c7 3 13 1 17-5" stroke-width="1.35"/><path d="M66 110c-3 18-3 34 0 50" stroke-width="2.2"/><path d="M69 124c8 3 14 8 17 16M66 141c-7 4-11 10-12 17M116 121c11 3 20 10 26 19" stroke-width="1.3"/></g>
  <g font-family="'Aref Ruqaa', 'Traditional Arabic', serif" font-weight="700"><text x="100" y="112" fill="#b18331" font-size="105" text-anchor="middle" transform="rotate(-9 100 88)">ع</text><text x="117" y="113" fill="url(#gold)" font-size="67" text-anchor="middle" transform="rotate(14 117 95)">م</text></g>
  <path d="M55 121c18 15 46 17 70 4" fill="none" stroke="url(#gold)" stroke-width="3.2" stroke-linecap="round"/><path d="M59 107c18 7 45 6 64-6" fill="none" stroke="#d2aa54" stroke-opacity=".55" stroke-width="1.2" stroke-linecap="round"/>
</svg>
